# AST/ASF file generated using VICON BodyLanguage
# -----------------------------------------------
:version 1.10
:name VICON
:units
  mass 1.0
  length 0.45
  angle deg
:documentation
   .ast/.asf automatically generated from VICON data using
   VICON BodyBuilder and BodyLanguage model FoxedUp or BRILLIANT.MOD
:root
   order TX TY TZ RX RY RZ
   axis XYZ
   position 0 0 0  
   orientation 0 0 0 
:bonedata
  begin
     id 1 
     name lhipjoint
     direction 0.561145 -0.797705 0.220866 
     length 2.46425 
     axis 0 0 0  XYZ
  end
  begin
     id 2 
     name lfemur
     direction 0.34202 -0.939693 0  
     length 7.95556  
     axis 0 0 20  XYZ
    dof rx ry rz
    limits (-160.0 20.0)
           (-70.0 70.0)
           (-60.0 70.0)
  end
  begin
     id 3 
     name ltibia
     direction 0.34202 -0.939693 0   
     length 7.9832   
     axis 0 0 20   XYZ
    dof rx
    limits (-10.0 170.0)
  end
  begin
     id 4 
     name lfoot
     direction 0.0723927 -0.198897 0.977343   
     length 2.23085   
     axis -90 7.62852e-016 20   XYZ
    dof rx rz
    limits (-45.0 90.0)
           (-70.0 20.0)
  end
  begin
     id 5 
     name ltoes
     direction 1.53826e-011 -4.21988e-011 1   
     length 1.12127   
     axis -90 7.62852e-016 20   XYZ
    dof rx
    limits (-90.0 20.0)
  end
  begin
     id 6 
     name rhipjoint
     direction -0.610499 -0.763299 0.21134   
     length 2.57533  
     axis 0 0 0  XYZ 
  end
  begin
     id 7 
     name rfemur
     direction -0.34202 -0.939693 0   
     length 8.65257   
     axis 0 0 -20   XYZ
    dof rx ry rz
    limits (-160.0 20.0)
           (-70.0 70.0)
           (-70.0 60.0)
  end
  begin
     id 8 
     name rtibia
     direction -0.342021 -0.939692 0   
     length 7.37807   
     axis 0 0 -20   XYZ
    dof rx
    limits (-10.0 170.0)
 end
 begin
     id 9 
     name rfoot
     direction -0.0239304 -0.0543852 0.998233   
     length 1.87018  
     axis -90 -7.62852e-016 -20   XYZ
    dof rx rz
    limits (-45.0 90.0)
           (-20.0 70.0)
  end
  begin
     id 10 
     name rtoes
     direction -1.53584e-011 -4.2242e-011 1   
     length 0.951568   
     axis -90 -7.62852e-016 -20   XYZ
    dof rx
    limits (-90.0 20.0)
  end
  begin
     id 11 
     name lowerback
     direction 0.00322089 0.999033 0.0438587   
     length 2.07568   
     axis 0 0 0   XYZ
    dof rx ry rz
    limits (-20.0 45.0)
           (-30.0 30.0)
           (-30.0 30.0)
  end
  begin
     id 12 
     name upperback
     direction -0.00321932 0.999732 -0.0229403   
     length 2.06253   
     axis 0 0 0   XYZ
    dof rx ry rz
    limits (-20.0 45.0)
           (-30.0 30.0)
           (-30.0 30.0)
  end
  begin
     id 13 
     name thorax
     direction -0.00537537 0.998955 -0.0453918   
     length 2.06975   
     axis 0 0 0   XYZ
    dof rx ry rz
    limits (-20.0 45.0)
           (-30.0 30.0)
           (-30.0 30.0)
  end
  begin
     id 14 
     name lowerneck
     direction -0.00013604 0.994111 0.108363   
     length 1.50836   
     axis 0 0 0   XYZ
    dof rx ry rz
    limits (-20.0 45.0)
           (-30.0 30.0)
           (-30.0 30.0)
  end
  begin
     id 15 
     name upperneck
     direction 0.0397262 0.983859 -0.174482   
     length 1.53037   
     axis 0 0 0   XYZ
    dof rx ry rz
    limits (-20.0 45.0)
           (-30.0 30.0)
           (-30.0 30.0)
  end
  begin
     id 16
     name head
     direction 0.0109991 0.997082 -0.0755378  
     length 1.56928  
     axis 0 0 0   XYZ
    dof rx ry rz
    limits (-20.0 45.0)
           (-30.0 30.0)
           (-30.0 30.0)
  end
  begin
     id 17 
     name lclavicle
     direction 0.964749 0.254 -0.068874  
     length 3.26503  
     axis 0 0 0   XYZ
    dof ry rz
    limits (-20.0 10.0)
           (0.0 20.0)
  end
  begin
     id 18 
     name lhumerus
     direction 1 -4.48941e-011 -2.05079e-027   
     length 5.68236   
     axis 180 -30 -90   XYZ
    dof rx ry rz
    limits (-60.0 90.0)
           (-90.0 90.0)
           (-90.0 90.0)
  end
  begin
     id 19
     name lradius
     direction 1 -4.48956e-011 6.2882e-027   
     length 3.17112   
     axis 180 -30 -90   XYZ
    dof rx
    limits (-10.0 170.0)
  end
  begin
     id 20
     name lwrist
     direction 1 -4.49014e-011 1.73219e-026   
     length 1.58556   
     axis -1.04724e-014 90 90   XYZ
    dof ry
    limits (-180.0 0.0)
 end
  begin
     id 21 
     name lhand
     direction 1 -4.49312e-011 3.46438e-026   
     length 0.632691   
     axis -2.21057e-014 90 90   XYZ
    dof rx rz
    limits (-90.0 90.0)
           (-45.0 45.0)
  end
  begin
     id 22 
     name lfingers
     direction 1 -4.48894e-011 6.92876e-026   
     length 0.510091   
     axis -4.42114e-014 90 90   XYZ
    dof rx
    limits (0.0 90.0)
  end
  begin
     id 23
     name lthumb
     direction 0.707107 -6.34705e-011 0.707107   
     length 0.732392   
     axis -90 45 2.85299e-015   XYZ
    dof rx rz
    limits (-45.0 45.0)
           (-45.0 45.0)
  end
  begin
     id 24 
     name rclavicle
     direction -0.954374 0.280496 -0.102435   
     length 3.25419  
     axis 0 0 0   XYZ 
    dof ry rz
    limits (-10.0 20.0)
           (-20.0 0.0)
  end
  begin
     id 25 
     name rhumerus
     direction -1 -4.48994e-011 -1.07204e-017  
     length 5.8712   
     axis 180 30 90   XYZ
    dof rx ry rz
    limits (-90.0 60.0)
           (-90.0 90.0)
           (-90.0 90.0)
  end
  begin
     id 26 
     name rradius
     direction -1 -4.48972e-011 5.89292e-027   
     length 3.37589   
     axis 180 30 90   XYZ
    dof rx
    limits (-10.0 170.0)
  end
  begin
     id 27 
     name rwrist
     direction -1 -4.48942e-011 1.73219e-026   
     length 1.68794   
     axis -1.04724e-014 -90 -90   XYZ
    dof ry
    limits (-180.0 0.0)
  end
  begin
     id 28
     name rhand
     direction -1 -4.48514e-011 3.46438e-026   
     length 0.603257   
     axis -2.21057e-014 -90 -90   XYZ
    dof rx rz
    limits (-90.0 90.0)
           (-45.0 45.0)
  end
  begin
     id 29
     name rfingers
     direction -1 -4.50028e-011 6.92876e-026   
     length 0.486362   
     axis -4.42114e-014 -90 -90   XYZ
    dof rx
    limits (0.0 90.0)
  end
  begin
     id 30
     name rthumb
     direction -0.707107 -6.34926e-011 0.707107   
     length 0.698321   
     axis -90 -45 -2.85299e-015   XYZ
    dof rx rz
    limits (-45.0 45.0)
           (-45.0 45.0)
  end
:hierarchy
  begin
    root lhipjoint rhipjoint lowerback
    lhipjoint lfemur
    lfemur ltibia
    ltibia lfoot
    lfoot ltoes
    rhipjoint rfemur
    rfemur rtibia
    rtibia rfoot
    rfoot rtoes
    lowerback upperback
    upperback thorax
    thorax lowerneck lclavicle rclavicle
    lowerneck upperneck
    upperneck head
    lclavicle lhumerus
    lhumerus lradius
    lradius lwrist
    lwrist lhand lthumb
    lhand lfingers
    rclavicle rhumerus
    rhumerus rradius
    rradius rwrist
    rwrist rhand rthumb
    rhand rfingers
  end

#!OML:ASF I:\Segmentation\Patient Classification 1\Patient 1\Session 1\Patient1.ASF
:FULLY-SPECIFIED
:DEGREES
3435
root 27.3318 17.9697 -5.07016 -58.711 -448.117 -1374.45
lowerback -11.4992 0.575109 -4.53104
upperback 2.86064 1.53622 -1.03318
thorax 9.46233 0.508093 1.7445
lowerneck -19.0161 -0.502877 -3.963
upperneck 19.1055 -0.0891046 2.10399
head 9.14704 -0.126172 1.36109
rclavicle -1.46107e-014 1.07344e-014
rhumerus -33.2016 5.63803 -78.4081
rradius 68.0409
rwrist 3.79719
rhand -17.7478 33.1465
rfingers 7.12502
rthumb 8.51373 3.33817
lclavicle -1.46107e-014 1.07344e-014
lhumerus -35.8004 -16.7571 90.0258
lradius 85.7183
lwrist 28.2564
lhand -19.8029 35.5252
lfingers 7.12502
lthumb 6.53012 65.4046
rfemur -14.5228 2.41515 18.2661
rtibia 43.9805
rfoot -18.4329 0.975239
rtoes -42.5048
lfemur -26.5493 8.24477 -26.7188
ltibia 40.3233
lfoot -19.3583 -3.83053
ltoes -3.86036
3436
root 27.3476 17.972 -5.09576 -65.4013 -448.11 -1367.62
lowerback -11.5964 0.555361 -4.55561
upperback 2.82891 1.51578 -1.00256
thorax 9.48427 0.495837 1.78895
lowerneck -18.8773 -0.46775 -3.93312
upperneck 18.909 -0.0431322 2.06463
head 9.05255 -0.104887 1.34671
rclavicle -9.93923e-017 -5.1684e-015
rhumerus -33.1496 5.77331 -78.6089
rradius 67.9431
rwrist 3.77302
rhand -17.3295 32.9466
rfingers 7.12502
rthumb 8.91735 3.15504
lclavicle -9.93923e-017 -5.1684e-015
lhumerus -35.736 -16.482 89.8754
lradius 85.5967
lwrist 27.971
lhand -19.3372 35.3013
lfingers 7.12502
lthumb 6.97961 65.1662
rfemur -14.5314 2.78312 18.2918
rtibia 43.5895
rfoot -18.9524 0.774324
rtoes -42.5563
lfemur -26.6906 8.00015 -26.7446
ltibia 40.232
lfoot -19.4746 -3.35147
ltoes -4.44997
3437
root 27.3651 17.9752 -5.12004 -74.2582 -448.084 -1358.54
lowerback -11.7688 0.575081 -4.55679
upperback 2.81206 1.55189 -0.999541
thorax 9.56419 0.511257 1.80311
lowerneck -18.8613 -0.470064 -3.91259
upperneck 18.7561 -0.0379006 2.01323
head 8.99684 -0.104322 1.3252
rclavicle -2.78299e-015 9.93923e-015
rhumerus -33.07 5.87099 -78.8145
rradius 67.8855
rwrist 3.68857
rhand -17.0894 32.6893
rfingers 7.12502
rthumb 9.14907 2.90778
lclavicle -2.78299e-015 9.93923e-015
lhumerus -35.3997 -16.0641 89.603
lradius 85.4014
lwrist 26.9407
lhand -17.3654 34.8987
lfingers 7.12502
lthumb 8.88279 64.6918
rfemur -14.6804 3.19172 18.2736
rtibia 43.2265
rfoot -19.2999 0.596992
rtoes -42.3992
lfemur -26.9262 7.68706 -26.785
ltibia 40.1724
lfoot -19.6955 -2.87753
ltoes -4.5073
3438
root 27.3834 17.9805 -5.14605 -84.4002 -448.023 -1348.21
lowerback -11.81 0.604172 -4.57856
upperback 2.7629 1.5946 -0.997873
thorax 9.53091 0.53197 1.82597
lowerneck -19.0255 -0.462205 -3.85519
upperneck 18.8223 -0.0276267 1.97327
head 9.04883 -0.0996378 1.30441
rclavicle -4.37326e-015 6.55989e-015
rhumerus -33.0458 6.02854 -79.0571
rradius 67.8519
rwrist 3.6281
rhand -17.3167 32.8463
rfingers 7.12502
rthumb 8.92979 3.05522
lclavicle -4.37326e-015 6.55989e-015
lhumerus -35.4555 -16.0156 89.5148
lradius 85.4989
lwrist 27.0248
lhand -17.3753 34.6604
lfingers 7.12502
lthumb 8.87317 64.4538
rfemur -14.8296 3.75629 18.2613
rtibia 42.8787
rfoot -19.4985 0.311528
rtoes -42.0318
lfemur -27.1643 7.50386 -26.8
ltibia 40.1414
lfoot -19.8369 -2.4991
ltoes -3.69799
3439
root 27.4012 17.9858 -5.1753 -91.0965 -447.942 -1341.38
lowerback -11.778 0.596709 -4.65511
upperback 2.69491 1.5871 -0.939835
thorax 9.43458 0.525699 1.92877
lowerneck -19.0774 -0.429668 -3.7588
upperneck 18.8651 0.0229954 1.83034
head 9.07151 -0.085473 1.24649
rclavicle -7.60351e-015 1.35174e-014
rhumerus -33.1235 6.28658 -79.2393
rradius 67.8304
rwrist 3.5433
rhand -17.5495 33.1453
rfingers 7.12502
rthumb 8.70513 3.34478
lclavicle -7.60351e-015 1.35174e-014
lhumerus -35.7302 -16.0099 89.4579
lradius 85.6444
lwrist 27.1779
lhand -18.3216 35.1045
lfingers 7.12502
lthumb 7.95997 64.9346
rfemur -14.8767 4.23529 18.3175
rtibia 42.5493
rfoot -19.835 -0.0405779
rtoes -41.8259
lfemur -27.3748 7.5885 -26.794
ltibia 40.1307
lfoot -19.8474 -2.26027
ltoes -3.67276
3440
root 27.4183 17.9873 -5.20502 -96.2574 -447.817 -1336.05
lowerback -11.8659 0.67977 -4.68219
upperback 2.6573 1.71089 -0.999956
thorax 9.43757 0.585769 1.90502
lowerneck -19.1035 -0.445911 -3.49739
upperneck 18.8551 -0.0472904 1.711
head 9.07477 -0.112205 1.15314
rclavicle -2.03754e-015 8.34896e-015
rhumerus -33.2241 6.09431 -79.4954
rradius 67.8078
rwrist 3.50435
rhand -17.5135 33.1991
rfingers 7.12502
rthumb 8.73986 3.4
lclavicle -2.03754e-015 8.34896e-015
lhumerus -35.8028 -16.3869 89.3565
lradius 85.8031
lwrist 27.8452
lhand -19.9069 35.6144
lfingers 7.12502
lthumb 6.42969 65.4968
rfemur -14.9641 4.56843 18.3301
rtibia 42.2474
rfoot -20.3237 -0.30478
rtoes -41.8225
lfemur -27.6266 7.64182 -26.8223
ltibia 40.1369
lfoot -19.889 -2.04106
ltoes -4.1245
3441
root 27.4367 17.9878 -5.23218 -100.792 -447.6 -1331.32
lowerback -11.9968 0.582755 -4.85052
upperback 2.64367 1.60687 -0.904286
thorax 9.49961 0.521796 2.08493
lowerneck -19.1639 -0.369842 -3.72992
upperneck 18.8073 0.125644 1.72901
head 9.06415 -0.0453514 1.22034
rclavicle -1.24737e-014 1.33186e-014
rhumerus -33.1033 6.49981 -79.628
rradius 67.7913
rwrist 3.40509
rhand -17.4865 33.0807
rfingers 7.12502
rthumb 8.76593 3.28279
lclavicle -1.24737e-014 1.33186e-014
lhumerus -35.7621 -16.0087 89.4002
lradius 85.9453
lwrist 28.3899
lhand -19.8742 35.3888
lfingers 7.12502
lthumb 6.46124 65.2703
rfemur -15.1427 4.83797 18.2457
rtibia 41.99
rfoot -20.5926 -0.503838
rtoes -41.6808
lfemur -27.9006 7.66171 -26.947
ltibia 40.1408
lfoot -19.8734 -1.78211
ltoes -4.29972
3442
root 27.4592 17.9893 -5.25936 -103.95 -447.36 -1327.99
lowerback -12.0292 0.58344 -4.94032
upperback 2.61143 1.62764 -0.972848
thorax 9.48176 0.529363 2.06621
lowerneck -19.1101 -0.347939 -3.64673
upperneck 18.6232 0.122867 1.77282
head 8.99083 -0.0329132 1.21992
rclavicle 1.30204e-014 -1.15295e-014
rhumerus -33.1165 6.63116 -79.9063
rradius 67.7612
rwrist 3.32733
rhand -17.4832 32.9585
rfingers 7.12502
rthumb 8.76909 3.16065
lclavicle 1.30204e-014 -1.15295e-014
lhumerus -35.6666 -15.9155 89.1675
lradius 85.9601
lwrist 28.19
lhand -18.4413 35.1093
lfingers 7.12502
lthumb 7.84446 64.9438
rfemur -15.3404 5.10158 18.1662
rtibia 41.7845
rfoot -20.7535 -0.685129
rtoes -41.7216
lfemur -28.1839 7.72809 -27.1022
ltibia 40.1214
lfoot -19.7912 -1.51562
ltoes -4.61018
3443
root 27.4844 17.9904 -5.28704 -107.002 -447.163 -1324.81
lowerback -11.9699 0.567709 -5.01392
upperback 2.58039 1.61366 -0.98547
thorax 9.41291 0.521079 2.08979
lowerneck -19.029 -0.275086 -3.52613
upperneck 18.4 0.20032 1.72159
head 8.89728 0.00932101 1.19084
rclavicle -5.71506e-015 1.2921e-014
rhumerus -33.2058 6.80128 -80.1228
rradius 67.7391
rwrist 3.32716
rhand -17.2552 32.6341
rfingers 7.12502
rthumb 8.98909 2.8456
lclavicle -5.71506e-015 1.2921e-014
lhumerus -35.6232 -15.9048 88.9277
lradius 85.976
lwrist 27.8273
lhand -17.5598 35.0556
lfingers 7.12502
lthumb 8.69512 64.8565
rfemur -15.4887 5.41102 18.1391
rtibia 41.6277
rfoot -21.0701 -0.856362
rtoes -41.8062
lfemur -28.4012 7.66909 -27.1671
ltibia 40.0757
lfoot -19.8155 -1.17819
ltoes -5.06113
3444
root 27.5069 17.9923 -5.31476 -110.389 -446.952 -1321.39
lowerback -11.8772 0.565994 -5.06489
upperback 2.59661 1.61254 -0.971043
thorax 9.37523 0.518053 2.13189
lowerneck -19.0538 -0.207721 -3.54046
upperneck 18.2957 0.302841 1.71149
head 8.8629 0.0570144 1.20246
rclavicle 3.40419e-015 -4.57205e-015
rhumerus -33.2358 6.88639 -80.2828
rradius 67.7115
rwrist 3.35416
rhand -16.994 32.4526
rfingers 7.12502
rthumb 9.24111 2.67508
lclavicle 3.40419e-015 -4.57205e-015
lhumerus -35.5828 -15.8063 88.7917
lradius 85.9952
lwrist 27.668
lhand -17.3625 35.2415
lfingers 7.12502
lthumb 8.8856 65.0344
rfemur -15.5518 5.70543 18.1009
rtibia 41.4914
rfoot -21.2791 -1.00357
rtoes -41.6634
lfemur -28.4871 7.58704 -27.2036
ltibia 40.0269
lfoot -19.8807 -0.789068
ltoes -5.39738
3445
root 27.5291 17.9897 -5.34253 -112.916 -446.686 -1318.78
lowerback -11.8607 0.592392 -5.14135
upperback 2.61116 1.66235 -1.01655
thorax 9.37777 0.538536 2.13535
lowerneck -19.1976 -0.187669 -3.48106
upperneck 18.336 0.326196 1.68096
head 8.9018 0.0691069 1.18621
rclavicle 9.7653e-015 1.25234e-014
rhumerus -33.2066 6.8764 -80.4934
rradius 67.6732
rwrist 3.30056
rhand -16.9094 32.5572
rfingers 7.12502
rthumb 9.32276 2.78333
lclavicle 9.7653e-015 1.25234e-014
lhumerus -35.4754 -15.6588 88.5901
lradius 85.9048
lwrist 27.3807
lhand -17.0238 35.257
lfingers 7.12502
lthumb 9.21241 65.0358
rfemur -15.6962 5.80946 18.0176
rtibia 41.3579
rfoot -21.3453 -0.987879
rtoes -41.514
lfemur -28.6474 7.56688 -27.3194
ltibia 39.9943
lfoot -19.9552 -0.443276
ltoes -5.65853
3446
root 27.5517 17.9867 -5.37107 -114.532 -446.448 -1317.02
lowerback -11.8759 0.56515 -5.2246
upperback 2.60096 1.64 -1.02901
thorax 9.37578 0.523501 2.16466
lowerneck -19.3218 -0.157863 -3.45287
upperneck 18.3614 0.382034 1.60176
head 8.93144 0.0887194 1.16247
rclavicle -8.17502e-015 -4.96962e-015
rhumerus -33.2265 7.06278 -80.7057
rradius 67.6561
rwrist 3.28479
rhand -17.0792 32.9511
rfingers 7.12502
rthumb 9.1589 3.16995
lclavicle -8.17502e-015 -4.96962e-015
lhumerus -35.4492 -15.5099 88.346
lradius 85.8419
lwrist 26.9885
lhand -16.3856 34.8601
lfingers 7.12502
lthumb 9.82816 64.6107
rfemur -15.9079 5.83632 17.9505
rtibia 41.2421
rfoot -21.5279 -0.998418
rtoes -41.4148
lfemur -28.8759 7.64932 -27.4479
ltibia 39.9673
lfoot -20.0056 -0.145849
ltoes -6.5041
